<svg  width="140" viewBox="0 0 406 108" fill="none" xmlns="http://www.w3.org/2000/svg">
  <path d="M93.6696 22.6C93.6696 23.21 93.1796 23.71 92.5696 23.71C92.2696 23.71 92.0096 23.6 91.8096 23.41C82.3096 14.68 69.0296 9.08002 54.1696 10C32.8596 11.33 17.5796 22.7 18.5796 38.82C18.7996 42.22 19.7796 45.56 21.5196 48.6C24.4996 53.82 29.3396 57.57 35.1396 59.16C40.9396 60.74 47.0196 59.97 52.2396 56.99C56.6396 54.48 60.6496 54.25 64.3296 55.25C68.2796 56.33 71.5596 58.88 73.5996 62.43C74.6996 64.36 75.4196 66.45 75.5596 68.61C76.4396 82.67 60.1296 89.54 46.3996 90.33C41.7296 90.6 36.9896 90.1 32.3496 88.84C21.0996 85.77 11.7096 78.5 5.91961 68.36C3.42961 64 1.74961 59.34 0.86961 54.53C0.84961 54.45 0.849609 54.37 0.849609 54.29C0.849609 53.68 1.33961 53.18 1.95961 53.18C2.41961 53.18 2.80961 53.45 2.97961 53.86C2.98961 53.87 2.99961 53.88 3.00961 53.9C3.60961 55.28 4.26961 56.64 5.03961 57.97C15.6996 76.64 40.5296 85.6 62.0996 73.16C63.8296 72.16 64.4296 69.97 63.4396 68.24C62.4496 66.51 60.2596 65.91 58.5196 66.89C40.5096 77.17 20.1096 69.74 11.3496 54.41C6.81961 46.47 5.64961 37.23 8.05961 28.41C10.4696 19.59 16.1696 12.24 24.1096 7.71002C36.6596 0.540016 50.6996 -1.53998 64.8196 2.33002C76.4696 5.52002 86.4596 12.43 93.5096 22.03C93.5996 22.19 93.6696 22.39 93.6696 22.6ZM100.45 52.99C99.5896 48.16 97.8896 43.47 95.3896 39.08C89.6096 28.94 80.2196 21.67 68.9596 18.6C64.3196 17.33 59.5796 16.84 54.9096 17.11C42.0096 17.84 24.5596 24.49 25.7596 38.97C25.9396 41.07 26.6196 43.12 27.6996 45.01C29.7396 48.56 33.0196 51.11 36.9696 52.19C40.6396 53.19 44.6596 52.97 49.0596 50.45C54.2796 47.47 60.3596 46.7 66.1596 48.28C71.9696 49.86 76.8096 53.61 79.7896 58.84C81.5296 61.88 82.5196 65.22 82.7196 68.61C83.7296 84.73 68.4396 96.1 47.1396 97.43C32.2196 98.36 18.8996 92.71 9.40961 83.94C9.21961 83.78 8.96961 83.68 8.70961 83.68C8.08961 83.68 7.59961 84.17 7.59961 84.79C7.59961 85 7.65961 85.18 7.75961 85.35C14.8096 94.99 24.8196 101.92 36.4896 105.11C50.6196 108.98 64.6596 106.9 77.2096 99.73C85.1496 95.2 90.8396 87.84 93.2496 79.02C95.6596 70.2 94.4796 60.96 89.9596 53.03C81.1896 37.69 60.8096 30.27 42.7896 40.54C41.0596 41.53 38.8696 40.92 37.8796 39.2C36.8896 37.47 37.4996 35.27 39.2196 34.28C60.8696 21.79 85.5696 30.71 96.2796 49.47C97.0296 50.8 97.7096 52.15 98.2996 53.53C98.3096 53.55 98.3196 53.56 98.3296 53.58C98.4996 53.98 98.8896 54.26 99.3496 54.26C99.9596 54.26 100.46 53.76 100.46 53.15C100.47 53.09 100.46 53.04 100.45 52.99Z" fill="white"/>
  <path d="M132.21 25.78C132.21 34.29 138.04 40.61 145.78 40.61C150.89 40.61 154.16 38.52 157.78 35.14C158.19 34.76 158.83 34.77 159.22 35.17L164.22 40.23C164.61 40.63 164.62 41.27 164.23 41.67C158.74 47.39 153.15 49.83 145.53 49.83C132.33 49.83 121.99 39.38 121.99 26.03C121.99 12.27 132.25 1.98003 145.85 1.98003C155.12 1.98003 160.17 5.61003 163.89 9.16003C164.29 9.54003 164.32 10.17 163.96 10.59L158.97 16.34C158.79 16.55 158.52 16.68 158.24 16.69C157.96 16.7 157.69 16.61 157.48 16.41C153.59 12.8 149.98 11.19 145.79 11.19C138.04 11.2 132.21 17.46 132.21 25.78ZM176.95 13.61H169.3C168.73 13.61 168.26 14.07 168.26 14.65V48.03C168.26 48.6 168.72 49.07 169.3 49.07H176.95C177.52 49.07 177.99 48.61 177.99 48.03V14.65C177.98 14.08 177.52 13.61 176.95 13.61ZM178.23 2.26003C178.23 1.69003 177.77 1.22003 177.19 1.22003H168.97C168.4 1.22003 167.93 1.68003 167.93 2.26003V9.53003C167.93 10.1 168.39 10.57 168.97 10.57H177.19C177.76 10.57 178.23 10.11 178.23 9.53003V2.26003ZM196.55 49.76C200.28 49.76 203.38 48.45 205.95 45.78V48.03C205.95 48.6 206.41 49.07 206.99 49.07H214.64C215.21 49.07 215.68 48.61 215.68 48.03V14.65C215.68 14.08 215.22 13.61 214.64 13.61H206.99C206.42 13.61 205.95 14.07 205.95 14.65V33.49C205.95 37.96 203.46 40.74 199.46 40.74C195.52 40.74 193.35 38.21 193.35 33.62V14.65C193.35 14.08 192.89 13.61 192.31 13.61H184.66C184.09 13.61 183.62 14.07 183.62 14.65V35.89C183.63 44.45 188.58 49.76 196.55 49.76ZM247.51 0.840027H255.16C255.73 0.840027 256.2 1.30003 256.2 1.88003V48.03C256.2 48.6 255.74 49.07 255.16 49.07H247.51C246.94 49.07 246.47 48.61 246.47 48.03V45.35C243.62 48.31 240.21 49.76 236.12 49.76C228.11 49.76 219.6 43.33 219.6 31.4C219.6 19.22 227.91 12.91 236.12 12.91C240.16 12.91 243.56 14.29 246.47 17.11V1.88003C246.47 1.31003 246.94 0.840027 247.51 0.840027ZM237.96 21.63C232.91 21.63 229.38 25.6 229.38 31.28C229.38 36.91 233.07 41.06 237.96 41.06C242.21 41.06 246.6 37.45 246.6 31.41C246.6 25.01 242.15 21.63 237.96 21.63ZM274.06 26.32C277.51 26.32 279.94 26.72 282.22 27.35C281.93 23.8 279.52 22.01 275.07 22.01C271.48 22.01 268.81 22.81 265.92 24.02C265.65 24.13 265.36 24.13 265.09 24.01C264.83 23.89 264.63 23.67 264.54 23.4L262.46 17.27C262.29 16.76 262.53 16.21 263.02 15.99C266.87 14.27 270.57 13.12 276.15 13.12C286.28 13.12 291.85 18.49 291.85 28.25V48.04C291.85 48.61 291.39 49.08 290.81 49.08H283.22C282.65 49.08 282.19 48.62 282.19 48.04V46.43C279.56 48.63 276.22 49.78 272.41 49.78C264.8 49.78 259.49 45.12 259.49 38.44C259.5 30.8 264.94 26.32 274.06 26.32ZM275.77 33.77C273.78 33.77 269.15 34.17 269.15 37.92C269.15 40.92 272.07 41.94 274.56 41.94C279.16 41.94 282.38 39.48 282.38 35.96V34.79C280.43 34.13 278.06 33.77 275.77 33.77ZM331.88 1.88003V48.03C331.88 48.6 331.42 49.07 330.84 49.07H323.19C322.62 49.07 322.15 48.61 322.15 48.03V45.35C319.3 48.31 315.89 49.76 311.8 49.76C303.79 49.76 295.28 43.33 295.28 31.4C295.28 19.22 303.59 12.91 311.8 12.91C315.84 12.91 319.24 14.29 322.15 17.11V1.88003C322.15 1.31003 322.61 0.840027 323.19 0.840027H330.84C331.41 0.840027 331.88 1.31003 331.88 1.88003ZM313.64 21.63C308.59 21.63 305.06 25.6 305.06 31.28C305.06 36.91 308.75 41.06 313.64 41.06C317.89 41.06 322.28 37.45 322.28 31.41C322.28 25.01 317.83 21.63 313.64 21.63ZM121.35 89.41C121.35 77.23 129.66 70.93 137.87 70.93C141.91 70.93 145.31 72.31 148.21 75.13V59.89C148.21 59.32 148.67 58.85 149.25 58.85H156.9C157.47 58.85 157.94 59.31 157.94 59.89V106.04C157.94 106.61 157.48 107.08 156.9 107.08H149.25C148.68 107.08 148.21 106.62 148.21 106.04V103.36C145.36 106.32 141.95 107.77 137.87 107.77C129.86 107.77 121.35 101.33 121.35 89.41ZM139.71 99.06C143.96 99.06 148.35 95.45 148.35 89.41C148.35 83.02 143.9 79.63 139.71 79.63C134.66 79.63 131.14 83.6 131.14 89.28C131.13 94.91 134.82 99.06 139.71 99.06ZM179.03 70.92C190.79 70.92 196.06 80.46 196.06 89.91C196.06 90.58 196 91.25 195.94 91.97L195.93 92.14C195.89 92.68 195.44 93.09 194.9 93.09H171.63C172.67 97.12 175.72 99.49 179.97 99.49C183.19 99.49 185.6 98.42 188.29 95.8C188.68 95.42 189.29 95.41 189.7 95.77L194.19 99.75C194.61 100.12 194.66 100.76 194.3 101.19C190.63 105.59 185.77 107.82 179.85 107.82C169.32 107.82 161.68 100.1 161.68 89.46C161.69 78.85 169.14 70.92 179.03 70.92ZM186.24 85.97C185.56 82.54 183.37 79.25 178.97 79.25C175.31 79.25 172.49 81.85 171.55 85.97H186.24ZM208.94 107.07C209.51 107.07 209.98 106.61 209.98 106.03V59.88C209.98 59.31 209.52 58.84 208.94 58.84H201.29C200.72 58.84 200.25 59.3 200.25 59.88V106.03C200.25 106.6 200.71 107.07 201.29 107.07H208.94ZM250.67 98.74C245.8 98.74 241.83 97.1 237.38 93.24C237.17 93.06 236.89 92.96 236.62 92.99C236.34 93.01 236.09 93.14 235.91 93.35L231.23 98.91C230.87 99.34 230.91 99.98 231.33 100.35C236.71 105.15 243.33 107.69 250.48 107.69C260.71 107.69 267.32 102.1 267.32 93.31C267.32 84.25 260.1 81.24 252.3 79.34C243.56 77.25 242.6 75.86 242.6 73.27C242.6 70.75 245.08 69.06 248.77 69.06C252.52 69.06 256.24 70.48 260.16 73.41C260.38 73.58 260.67 73.65 260.94 73.6C261.22 73.56 261.46 73.4 261.62 73.18L265.79 67.3C266.11 66.85 266.02 66.24 265.59 65.89C260.74 61.99 255.27 60.1 248.89 60.1C239.38 60.1 232.74 65.8 232.74 74.1C232.74 82.86 238.43 85.94 248.27 88.32C256.82 90.29 257.46 91.88 257.46 94.2C257.47 96.96 254.8 98.74 250.67 98.74ZM286.01 71.11C296.14 71.11 301.71 76.49 301.71 86.24V106.03C301.71 106.6 301.25 107.07 300.67 107.07H293.08C292.51 107.07 292.04 106.61 292.04 106.03V104.42C289.41 106.62 286.07 107.76 282.26 107.76C274.65 107.76 269.34 103.1 269.34 96.42C269.34 88.8 274.79 84.32 283.9 84.32C287.36 84.32 289.78 84.72 292.07 85.35C291.78 81.8 289.37 80.01 284.91 80.01C281.32 80.01 278.65 80.81 275.76 82.02C275.49 82.13 275.2 82.13 274.93 82.01C274.67 81.89 274.47 81.67 274.38 81.4L272.29 75.27C272.12 74.76 272.36 74.21 272.85 73.99C276.73 72.26 280.43 71.11 286.01 71.11ZM285.63 91.77C283.64 91.77 279.02 92.17 279.02 95.92C279.02 98.92 281.94 99.94 284.43 99.94C289.03 99.94 292.25 97.48 292.25 93.96V92.79C290.29 92.14 287.93 91.77 285.63 91.77ZM343.45 89.28C343.45 101.46 335.1 107.77 326.86 107.77C322.87 107.77 319.42 106.37 316.58 103.6V106.04C316.58 106.61 316.12 107.08 315.55 107.08H307.9C307.33 107.08 306.86 106.62 306.86 106.04V59.89C306.86 59.32 307.32 58.85 307.9 58.85H315.55C316.12 58.85 316.58 59.31 316.58 59.89V75.34C319.42 72.38 322.81 70.93 326.86 70.93C337.63 70.92 343.45 80.38 343.45 89.28ZM325.09 79.63C320.13 79.63 316.39 83.78 316.39 89.28C316.39 94.91 320.13 99.06 325.09 99.06C330.1 99.06 333.6 95.09 333.6 89.41C333.6 83.69 330.02 79.63 325.09 79.63ZM379.86 89.91C379.86 90.58 379.8 91.25 379.74 91.97L379.73 92.14C379.69 92.68 379.24 93.09 378.7 93.09H355.43C356.47 97.12 359.52 99.49 363.77 99.49C367 99.49 369.41 98.42 372.09 95.8C372.48 95.42 373.1 95.41 373.5 95.77L377.99 99.75C378.41 100.12 378.46 100.76 378.1 101.19C374.43 105.59 369.57 107.82 363.65 107.82C353.12 107.82 345.48 100.1 345.48 89.46C345.48 78.83 352.94 70.91 362.83 70.91C374.6 70.92 379.86 80.46 379.86 89.91ZM355.35 85.97H370.05C369.37 82.54 367.18 79.25 362.78 79.25C359.11 79.25 356.29 81.85 355.35 85.97ZM392.3 71.62H384.65C384.08 71.62 383.61 72.08 383.61 72.66V106.04C383.61 106.61 384.07 107.08 384.65 107.08H392.3C392.87 107.08 393.34 106.62 393.34 106.04V93.33C393.34 85.59 397.11 81.15 403.69 81.15H404.13C404.7 81.15 405.17 80.69 405.17 80.11V72.02C405.17 71.47 404.73 71.01 404.18 70.99C399.66 70.77 395.96 72.63 393.35 76.2V72.66C393.33 72.08 392.87 71.62 392.3 71.62Z" fill="white"/>
</svg>